<?xml version="1.0" encoding="iso-8859-1"?>
<!-- Generator: Adobe Illustrator 19.0.0, SVG Export Plug-In . SVG Version: 6.00 Build 0)  -->
<svg version="1.1" id="Capa_1" xmlns="http://www.w3.org/2000/svg" xmlns:xlink="http://www.w3.org/1999/xlink" x="0px" y="0px"
	 viewBox="0 0 511.993 511.993" style="enable-background:new 0 0 511.993 511.993;" xml:space="preserve">
<linearGradient id="SVGID_1_" gradientUnits="userSpaceOnUse" x1="69.654" y1="448.2119" x2="416.1364" y2="101.7296" gradientTransform="matrix(1.0449 0 0 -1.0449 2.1993 543.3086)">
	<stop  offset="0" style="stop-color:#00E8F2"/>
	<stop  offset="1" style="stop-color:#006EF5"/>
</linearGradient>
<circle style="fill:url(#SVGID_1_);" cx="255.996" cy="255.996" r="255.996"/>
<g>
	
		<linearGradient id="SVGID_2_" gradientUnits="userSpaceOnUse" x1="81.8952" y1="350.5202" x2="403.9052" y2="350.5202" gradientTransform="matrix(1.0449 0 0 -1.0449 2.1993 543.3086)">
		<stop  offset="0" style="stop-color:#006EF5"/>
		<stop  offset="0.333" style="stop-color:#006CF0"/>
		<stop  offset="0.711" style="stop-color:#0065E3"/>
		<stop  offset="1" style="stop-color:#005ED3"/>
	</linearGradient>
	<path style="fill:url(#SVGID_2_);" d="M427.902,204.68H84.098c-13.505,0-24.555-11.05-24.555-24.555v-6.139
		c0-13.505,11.05-24.555,24.555-24.555H427.9c13.505,0,24.555,11.05,24.555,24.555v6.139
		C452.456,193.63,441.407,204.68,427.902,204.68z"/>
	
		<linearGradient id="SVGID_3_" gradientUnits="userSpaceOnUse" x1="81.8952" y1="199.4137" x2="403.9052" y2="199.4137" gradientTransform="matrix(1.0449 0 0 -1.0449 2.1993 543.3086)">
		<stop  offset="0" style="stop-color:#006EF5"/>
		<stop  offset="0.333" style="stop-color:#006CF0"/>
		<stop  offset="0.711" style="stop-color:#0065E3"/>
		<stop  offset="1" style="stop-color:#005ED3"/>
	</linearGradient>
	<path style="fill:url(#SVGID_3_);" d="M84.098,307.32H427.9c13.505,0,24.555,11.05,24.555,24.555v6.14
		c0,13.505-11.05,24.555-24.555,24.555H84.098c-13.505,0-24.555-11.05-24.555-24.555v-6.14
		C59.544,318.37,70.593,307.32,84.098,307.32z"/>
</g>
<g>
	
		<linearGradient id="SVGID_4_" gradientUnits="userSpaceOnUse" x1="81.8952" y1="350.5208" x2="403.9052" y2="350.5208" gradientTransform="matrix(1.0449 0 0 -1.0449 2.1993 543.3086)">
		<stop  offset="0" style="stop-color:#FFFFFF"/>
		<stop  offset="1" style="stop-color:#C8C6CC"/>
	</linearGradient>
	<circle style="fill:url(#SVGID_4_);" cx="170.211" cy="177.055" r="60.289"/>
	
		<linearGradient id="SVGID_5_" gradientUnits="userSpaceOnUse" x1="81.8952" y1="199.4107" x2="403.9052" y2="199.4107" gradientTransform="matrix(1.0449 0 0 -1.0449 2.1993 543.3086)">
		<stop  offset="0" style="stop-color:#FFFFFF"/>
		<stop  offset="1" style="stop-color:#C8C6CC"/>
	</linearGradient>
	<circle style="fill:url(#SVGID_5_);" cx="341.781" cy="334.948" r="60.289"/>
</g>
<g>
</g>
<g>
</g>
<g>
</g>
<g>
</g>
<g>
</g>
<g>
</g>
<g>
</g>
<g>
</g>
<g>
</g>
<g>
</g>
<g>
</g>
<g>
</g>
<g>
</g>
<g>
</g>
<g>
</g>
</svg>
